<svg width="350.994" height="74.859" viewBox="0 0 350.994 74.859" xmlns="http://www.w3.org/2000/svg"><g id="svgGroup" stroke-linecap="round" fill-rule="evenodd" font-size="9pt" stroke="#ffffff" stroke-width="0.25mm" fill="#ffffff" style="stroke:#ffffff;stroke-width:0.25mm;fill:#ffffff"><path d="M 289.063 73.722 L 286.79 73.722 L 286.79 19.177 L 289.063 19.177 L 289.063 27.273 L 289.347 27.273 A 12.563 12.563 0 0 1 294.219 21.189 A 15.665 15.665 0 0 1 294.691 20.881 A 15.543 15.543 0 0 1 300.276 18.778 A 21.064 21.064 0 0 1 303.977 18.466 A 20.279 20.279 0 0 1 308.054 18.852 Q 310.557 19.366 312.5 20.564 A 11.65 11.65 0 0 1 313.832 21.52 A 15.109 15.109 0 0 1 318.348 27.991 A 19.136 19.136 0 0 1 318.892 29.688 L 319.176 29.688 Q 320.526 24.574 324.645 21.52 A 15.198 15.198 0 0 1 330.853 18.844 A 21.163 21.163 0 0 1 334.943 18.466 A 20.436 20.436 0 0 1 339.652 18.974 Q 344.373 20.092 347.07 23.669 Q 350.886 28.728 350.991 36.625 A 33.784 33.784 0 0 1 350.994 37.074 L 350.994 73.722 L 348.722 73.722 L 348.722 37.074 A 26.261 26.261 0 0 0 348.272 32.069 Q 347.509 28.143 345.455 25.285 Q 342.353 20.969 335.665 20.751 A 22.152 22.152 0 0 0 334.943 20.739 A 18.191 18.191 0 0 0 330.413 21.27 A 12.262 12.262 0 0 0 323.864 25.338 A 16.222 16.222 0 0 0 320.403 32.861 A 22.681 22.681 0 0 0 320.028 37.074 L 320.028 73.722 L 317.756 73.722 L 317.756 37.074 A 26.261 26.261 0 0 0 317.306 32.069 Q 316.543 28.143 314.489 25.285 Q 311.387 20.969 304.699 20.751 A 22.152 22.152 0 0 0 303.977 20.739 A 18.562 18.562 0 0 0 300.302 21.085 A 13.195 13.195 0 0 0 295.827 22.834 Q 292.507 24.929 290.785 28.623 A 18.213 18.213 0 0 0 289.275 33.86 A 23.484 23.484 0 0 0 289.063 37.074 L 289.063 73.722 Z M 181.818 23.722 L 179.545 23.722 A 24.268 24.268 0 0 0 177.988 18.452 A 29.415 29.415 0 0 0 176.935 16.211 A 27.031 27.031 0 0 0 172.116 9.666 A 30.436 30.436 0 0 0 171.715 9.269 A 25.085 25.085 0 0 0 164.645 4.467 A 28.625 28.625 0 0 0 164.027 4.191 Q 159.588 2.273 153.977 2.273 A 26.792 26.792 0 0 0 145.485 3.58 A 23.587 23.587 0 0 0 139.364 6.659 A 27.305 27.305 0 0 0 131.531 15.215 A 34.461 34.461 0 0 0 129.616 18.946 A 39.867 39.867 0 0 0 126.802 28.661 A 54.227 54.227 0 0 0 126.136 37.358 A 53.223 53.223 0 0 0 126.893 46.541 A 40.072 40.072 0 0 0 129.581 55.647 A 31.425 31.425 0 0 0 134.053 63.079 A 26.525 26.525 0 0 0 139.347 68.005 A 24.42 24.42 0 0 0 151.119 72.288 A 30.991 30.991 0 0 0 154.261 72.444 A 27.297 27.297 0 0 0 162.271 71.303 A 23.783 23.783 0 0 0 167.756 68.839 A 23.801 23.801 0 0 0 176.059 60.161 A 29.238 29.238 0 0 0 176.953 58.47 Q 180.256 51.705 180.114 42.188 L 181.108 43.04 L 154.972 43.04 L 154.972 40.768 L 182.386 40.768 L 182.386 43.04 A 45.751 45.751 0 0 1 181.742 50.921 Q 180.927 55.578 179.084 59.422 A 28.196 28.196 0 0 1 178.764 60.068 A 27.442 27.442 0 0 1 173.21 67.594 A 25.065 25.065 0 0 1 168.786 70.934 A 26.993 26.993 0 0 1 157.261 74.583 A 33.235 33.235 0 0 1 154.261 74.716 Q 145.028 74.716 138.192 70.011 A 29.561 29.561 0 0 1 129.157 59.976 A 36.77 36.77 0 0 1 127.61 56.89 A 42.311 42.311 0 0 1 124.53 46.256 A 56.859 56.859 0 0 1 123.864 37.358 A 56.705 56.705 0 0 1 124.506 28.643 A 45.106 45.106 0 0 1 126.012 22.106 A 38.48 38.48 0 0 1 129.164 14.712 A 32.075 32.075 0 0 1 132.156 10.281 Q 136.151 5.327 141.69 2.664 A 27.197 27.197 0 0 1 151.49 0.094 A 32.573 32.573 0 0 1 153.977 0 A 31.585 31.585 0 0 1 159.82 0.517 A 24.135 24.135 0 0 1 165.27 2.202 A 27.661 27.661 0 0 1 171.692 6.173 A 25.084 25.084 0 0 1 173.633 7.973 A 31.095 31.095 0 0 1 178.176 13.896 A 28.211 28.211 0 0 1 179.137 15.679 A 31.95 31.95 0 0 1 180.951 20.135 A 25.365 25.365 0 0 1 181.818 23.722 Z M 64.631 55.54 L 66.903 55.54 Q 66.903 60.441 69.46 64.258 A 17.476 17.476 0 0 0 75.862 69.98 A 20.722 20.722 0 0 0 76.403 70.26 A 20.945 20.945 0 0 0 83.895 72.339 A 25.447 25.447 0 0 0 86.222 72.444 A 23.894 23.894 0 0 0 91.328 71.921 A 18.599 18.599 0 0 0 96.342 70.064 A 17.945 17.945 0 0 0 102.041 65.235 A 17.435 17.435 0 0 0 103.107 63.672 A 16.733 16.733 0 0 0 105.54 54.83 A 16.622 16.622 0 0 0 104.675 49.397 A 14.837 14.837 0 0 0 102.77 45.668 A 17.642 17.642 0 0 0 96.897 40.423 A 21.692 21.692 0 0 0 95.153 39.542 A 24.496 24.496 0 0 0 88.381 37.64 A 31.566 31.566 0 0 0 84.091 37.358 L 82.955 37.358 L 82.955 35.086 L 84.091 35.086 A 25.383 25.383 0 0 0 89.819 34.463 A 20.974 20.974 0 0 0 93.928 33.062 A 17.507 17.507 0 0 0 98.88 29.686 A 16.155 16.155 0 0 0 100.852 27.344 A 14.366 14.366 0 0 0 103.3 20.639 A 18.374 18.374 0 0 0 103.409 18.608 A 17.064 17.064 0 0 0 102.633 13.393 A 15.159 15.159 0 0 0 101.207 10.228 A 15.756 15.756 0 0 0 95.117 4.404 A 17.195 17.195 0 0 0 89.249 2.492 A 22.252 22.252 0 0 0 86.08 2.273 A 20.472 20.472 0 0 0 81.005 2.88 A 16.973 16.973 0 0 0 77.06 4.422 A 15.892 15.892 0 0 0 70.863 10.388 A 16.26 16.26 0 0 0 68.72 17.02 A 20.359 20.359 0 0 0 68.608 19.177 L 66.335 19.177 A 21.013 21.013 0 0 1 67.057 13.576 A 17.806 17.806 0 0 1 68.892 9.233 A 18.136 18.136 0 0 1 75.906 2.451 A 19.82 19.82 0 0 1 83.3 0.154 A 24.662 24.662 0 0 1 86.08 0 A 22.871 22.871 0 0 1 91.786 0.686 A 18.913 18.913 0 0 1 96.218 2.433 Q 100.639 4.866 103.161 9.074 A 17.852 17.852 0 0 1 105.642 17.294 A 21.666 21.666 0 0 1 105.682 18.608 Q 105.682 25 102.024 29.581 Q 98.366 34.162 92.188 35.938 L 92.188 36.222 A 24.268 24.268 0 0 1 98.418 38.706 A 19.874 19.874 0 0 1 103.569 42.969 A 17.458 17.458 0 0 1 107.803 54.185 A 22.154 22.154 0 0 1 107.812 54.83 A 19.395 19.395 0 0 1 106.328 62.444 A 18.651 18.651 0 0 1 105.06 64.915 A 19.814 19.814 0 0 1 97.443 72.071 A 21.693 21.693 0 0 1 89.864 74.483 A 27.656 27.656 0 0 1 86.222 74.716 A 26.054 26.054 0 0 1 79.709 73.93 A 21.998 21.998 0 0 1 75.195 72.231 A 20.153 20.153 0 0 1 69.02 67.463 A 19.282 19.282 0 0 1 67.472 65.412 A 17.444 17.444 0 0 1 64.642 56.239 A 21.17 21.17 0 0 1 64.631 55.54 Z M 264.915 37.785 L 264.915 34.518 A 15.134 15.134 0 0 0 264.217 29.818 A 12.299 12.299 0 0 0 260.689 24.415 A 14.354 14.354 0 0 0 254.123 21.09 A 21.108 21.108 0 0 0 249.432 20.597 Q 243.679 20.597 239.382 23.136 A 13.558 13.558 0 0 0 233.381 30.256 L 231.25 29.404 A 15.314 15.314 0 0 1 235.192 23.509 A 18.355 18.355 0 0 1 240.836 19.937 A 21.149 21.149 0 0 1 241.513 19.674 A 22.112 22.112 0 0 1 247.855 18.372 A 25.896 25.896 0 0 1 249.432 18.324 A 24.226 24.226 0 0 1 253.369 18.631 A 18.689 18.689 0 0 1 256.871 19.549 A 17.313 17.313 0 0 1 260.596 21.455 A 15.067 15.067 0 0 1 262.464 22.959 Q 264.773 25.143 265.98 28.09 Q 267.188 31.037 267.188 34.518 L 267.188 73.722 L 264.915 73.722 L 264.915 62.643 L 264.631 62.643 A 22.513 22.513 0 0 1 260.21 69.088 Q 257.493 71.84 253.96 73.349 Q 250.426 74.858 246.307 74.858 A 18.927 18.927 0 0 1 239.738 73.731 A 17.864 17.864 0 0 1 238.05 73.012 A 14.856 14.856 0 0 1 231.978 67.614 A 14.034 14.034 0 0 1 230.013 62.583 A 19.371 19.371 0 0 1 229.687 58.949 A 15.335 15.335 0 0 1 230.274 54.671 A 14.17 14.17 0 0 1 230.575 53.747 A 10.207 10.207 0 0 1 232.434 50.612 A 13.117 13.117 0 0 1 233.7 49.326 Q 235.439 47.78 238.262 46.577 A 28.662 28.662 0 0 1 239.968 45.917 Q 242.896 44.885 247.015 44.209 A 74.216 74.216 0 0 1 250.284 43.75 Q 254.048 43.324 257.386 42.756 A 24.665 24.665 0 0 0 259.704 42.253 Q 261.506 41.764 262.82 41.052 Q 264.915 39.915 264.915 37.785 Z M 23.438 3.268 L 0 3.268 L 0 0.995 L 49.148 0.995 L 49.148 3.268 L 25.71 3.268 L 25.71 73.722 L 23.438 73.722 L 23.438 3.268 Z M 202.415 73.722 L 200.142 73.722 L 200.142 19.177 L 202.415 19.177 L 202.415 27.841 L 202.699 27.841 A 14.617 14.617 0 0 1 208.056 21.614 A 18.224 18.224 0 0 1 209.002 21.023 A 18.859 18.859 0 0 1 216.792 18.572 A 23.368 23.368 0 0 1 219.034 18.466 L 219.602 18.466 L 220.17 18.466 L 220.17 20.739 L 219.602 20.739 L 219.034 20.739 A 19.004 19.004 0 0 0 214.208 21.33 A 15.888 15.888 0 0 0 210.458 22.834 A 15.384 15.384 0 0 0 204.563 28.623 A 15.87 15.87 0 0 0 202.518 35.043 A 19.654 19.654 0 0 0 202.415 37.074 L 202.415 73.722 Z M 264.915 50.427 L 264.915 42.188 A 9.255 9.255 0 0 1 263.743 42.93 A 12.473 12.473 0 0 1 262.518 43.502 A 21.18 21.18 0 0 1 261.026 44.039 A 27.78 27.78 0 0 1 259.357 44.514 A 38.628 38.628 0 0 1 257.057 45.017 A 47.58 47.58 0 0 1 255.54 45.277 A 121.764 121.764 0 0 1 253.409 45.588 A 146.772 146.772 0 0 1 251.136 45.881 A 71.636 71.636 0 0 0 246.869 46.501 Q 242.658 47.251 239.827 48.393 A 20.801 20.801 0 0 0 239.631 48.473 A 18.986 18.986 0 0 0 237.145 49.711 Q 235.883 50.468 234.961 51.348 A 8.746 8.746 0 0 0 233.7 52.841 A 10.488 10.488 0 0 0 232.012 57.778 A 13.103 13.103 0 0 0 231.96 58.949 Q 231.96 65.128 236.097 68.857 A 14.397 14.397 0 0 0 245.002 72.541 A 18.8 18.8 0 0 0 246.307 72.586 A 16.721 16.721 0 0 0 255.717 69.798 A 18.935 18.935 0 0 0 261.523 63.671 A 23.209 23.209 0 0 0 262.429 62.021 A 23.333 23.333 0 0 0 264.565 55.153 A 30.772 30.772 0 0 0 264.915 50.427 Z" vector-effect="non-scaling-stroke"/></g></svg>